<?xml version="1.0" standalone="no"?>
<!DOCTYPE svg PUBLIC "-//W3C//DTD SVG 20010904//EN"
 "http://www.w3.org/TR/2001/REC-SVG-20010904/DTD/svg10.dtd">
<svg version="1.0" xmlns="http://www.w3.org/2000/svg"
 width="500.000000pt" height="500.000000pt" viewBox="0 0 500.000000 500.000000"
 preserveAspectRatio="xMidYMid meet">
<metadata>
Created by potrace 1.14, written by Peter Selinger 2001-2017
</metadata>
<g transform="translate(0.000000,500.000000) scale(0.100000,-0.100000)"
fill="#000000" stroke="none">
<path d="M363 4849 c-66 -25 -128 -86 -161 -157 l-27 -57 0 -2150 0 -2150 21
-46 c31 -67 78 -114 146 -149 l61 -30 2122 0 2122 0 61 31 c70 35 104 71 141
149 l26 55 0 2145 0 2145 -26 56 c-34 72 -99 134 -166 159 -53 20 -80 20
-2161 19 -2078 0 -2108 0 -2159 -20z m2792 -594 c70 -163 224 -429 314 -543
l38 -48 -106 -33 c-167 -52 -359 -154 -492 -263 l-55 -45 -18 61 c-9 34 -36
98 -60 141 -72 136 -171 190 -299 165 -125 -24 -313 -133 -403 -233 -77 -86
-77 -88 -34 -193 42 -102 122 -256 186 -355 l42 -67 53 10 c67 12 186 59 263
105 83 48 200 138 221 170 l17 26 22 -69 c30 -93 138 -303 196 -379 l46 -61
-80 -18 c-155 -35 -372 -137 -451 -212 -42 -40 -44 -45 -34 -73 24 -68 193
-389 251 -478 l63 -95 61 5 c175 16 369 100 464 200 73 76 96 177 65 283 -23
81 -86 198 -144 271 l-48 60 96 27 c170 47 440 192 529 283 20 22 34 29 36 21
76 -261 298 -694 453 -886 31 -38 33 -43 16 -49 -174 -62 -1028 -479 -1427
-697 -333 -182 -727 -406 -827 -471 -39 -25 -73 -45 -77 -45 -5 0 -16 26 -26
58 -30 94 -79 191 -149 294 l-66 98 32 16 c72 37 147 107 173 161 41 82 32
135 -45 288 -69 137 -198 338 -259 403 -22 23 -60 51 -85 62 -45 20 -46 21
-31 48 36 70 5 182 -121 437 -89 181 -129 234 -200 266 -60 28 -127 23 -228
-15 -58 -22 -90 -30 -92 -22 -33 118 -87 230 -166 347 -61 89 -66 99 -48 99
39 0 911 404 1204 557 421 221 940 521 1090 630 l40 30 41 -116 c23 -64 50
-134 59 -156z"/>
</g>
</svg>
